<svg width="87" height="88" viewBox="0 0 87 88" fill="none" xmlns="http://www.w3.org/2000/svg">
<path d="M43.5004 0.5C19.412 0.5 0 19.9119 0 43.9998C0 68.0873 19.412 87.5 43.5004 87.5C67.5873 87.5 87 68.0873 87 43.9998C87 19.9119 67.5873 0.5 43.5004 0.5ZM61.2372 64.4154C60.57 64.4154 59.89 64.0748 59.2228 63.7355C52.8727 60.0629 45.1748 58.052 36.8096 58.052C32.1298 58.052 27.4374 58.7199 23.0848 59.7229C22.4174 59.7229 21.4102 60.0629 21.0827 60.0629C19.412 60.0629 18.4048 58.7199 18.4048 57.3848C18.4048 55.7103 19.412 54.7066 20.7428 54.3794C26.1025 53.0322 31.4498 52.365 37.1496 52.365C46.5058 52.365 55.2102 54.7031 62.5724 59.0592C63.5754 59.7229 64.2426 60.3901 64.2426 62.0646C63.9153 63.4125 62.5724 64.4154 61.2372 64.4154ZM65.9178 53.0322C64.9106 53.0322 64.2426 52.7049 63.5754 52.365C56.5454 48.0124 46.845 45.3343 35.8024 45.3343C30.4553 45.3343 25.4351 46.0142 21.75 47.0052C20.7428 47.3452 20.4153 47.3452 19.7355 47.3452C17.7374 47.3452 16.3903 45.6743 16.3903 43.9998C16.3903 41.9854 17.3976 40.9944 19.0723 40.3152C24.0881 38.98 29.1079 37.9728 36.1424 37.9728C47.513 37.9728 58.5598 40.6545 67.2649 46.0142C68.5952 46.6779 69.2624 48.0124 69.2624 49.3596C69.2624 51.3578 67.9279 53.0322 65.9178 53.0322ZM71.2776 39.6473C70.2696 39.6473 69.9304 39.32 68.9359 38.98C60.898 34.3002 48.8601 31.6221 37.1496 31.6221C31.1226 31.6221 25.0953 32.2893 19.7355 33.6203C19.0722 33.6203 18.4048 33.9602 17.3976 33.9602C15.0597 34.3002 13.3849 32.2893 13.3849 29.9476C13.3849 27.6096 14.7198 26.2625 16.3903 25.9349C22.7572 23.9246 29.4478 23.2571 37.1496 23.2571C49.8504 23.2571 63.2354 25.9349 73.275 31.6221C74.6222 32.2893 75.6294 33.6203 75.6294 35.6347C75.2895 37.9728 73.615 39.6473 71.2776 39.6473Z" fill="white"/>
</svg>
